<svg height="128px" viewBox="0 0 128 128" width="128px" xmlns="http://www.w3.org/2000/svg">
    <linearGradient id="a" gradientTransform="matrix(0.45451 0 0 0.455522 -1210.292114 616.172607)" gradientUnits="userSpaceOnUse" x1="2689.251953" x2="2918.069824" y1="-1106.802979" y2="-1106.802979">
        <stop offset="0" stop-color="#62a0ea"/>
        <stop offset="0.0576991" stop-color="#afd4ff"/>
        <stop offset="0.122204" stop-color="#62a0ea"/>
        <stop offset="0.873306" stop-color="#62a0ea"/>
        <stop offset="0.955997" stop-color="#c0d5ea"/>
        <stop offset="1" stop-color="#62a0ea"/>
    </linearGradient>
    
    <!-- Aba da pasta (parte superior) -->
    <path d="m 21.976562 12 c -5.527343 0 -9.976562 4.460938 -9.976562 10 v 86.03125 c 0 5.542969 4.449219 10 9.976562 10 h 84.042969 c 5.53125 0 9.980469 -4.457031 9.980469 -10 v -72.085938 c 0 -6.628906 -5.359375 -12 -11.972656 -12 h -46.027344 c -2.453125 0 -4.695312 -1.386718 -5.796875 -3.582031 l -1.503906 -2.992187 c -1.65625 -3.292969 -5.019531 -5.371094 -8.699219 -5.371094 z m 0 0" fill="#438de6"/>
    
    <!-- Corpo da pasta (parte inferior) -->
    <path d="m 65.976562 32 c -2.746093 0 -5.226562 1.101562 -7.027343 2.890625 c -2.273438 2.253906 -5.382813 5.109375 -8.632813 5.109375 h -28.339844 c -5.527343 0 -9.976562 4.460938 -9.976562 10 v 55.976562 c 0 5.539063 4.449219 10 9.976562 10 h 84.042969 c 5.53125 0 9.980469 -4.460937 9.980469 -10 v -63.976562 c 0 -5.539062 -4.449219 -10 -9.980469 -10 z m 0 0" fill="url(#a)"/>
    
    <!-- Caixa com esquadro e compasso (lado esquerdo) -->
    <!-- Caixa/caixa de ferramentas -->
    <rect x="30" y="55" width="32" height="28" rx="3" ry="3" fill="#438de6" stroke="#2a5ea8" stroke-width="1.5"/>
    <!-- Alça da caixa -->
    <path d="m 38 55 v -4 c 0 -3.5 3 -6 8 -6 s 8 2.5 8 6 v 4" fill="none" stroke="#2a5ea8" stroke-width="2" stroke-linecap="round"/>
    
    <!-- Esquadro (triângulo retângulo) -->
    <polygon points="36,76 36,62 50,76" fill="#f5c542" stroke="#d4a32e" stroke-width="1.5"/>
    <!-- Marcação do ângulo reto no esquadro -->
    <path d="m 36 74 l 2 0 l 0 -2" fill="none" stroke="#b8891a" stroke-width="1"/>
    
    <!-- Compasso (pernas abertas) -->
    <line x1="56" y1="60" x2="48" y2="78" stroke="#b0b0b0" stroke-width="2" stroke-linecap="round"/>
    <line x1="56" y1="60" x2="62" y2="78" stroke="#b0b0b0" stroke-width="2" stroke-linecap="round"/>
    <!-- Articulação do compasso -->
    <circle cx="56" cy="60" r="2.5" fill="#888888"/>
    <!-- Pontas do compasso -->
    <circle cx="48" cy="78" r="1.2" fill="#666"/>
    <circle cx="62" cy="78" r="1.2" fill="#666"/>
    
    <!-- Robô/Autômato (lado direito) -->
    <!-- Cabeça do robô -->
    <rect x="72" y="52" width="26" height="22" rx="4" ry="4" fill="#7cb7f0" stroke="#438de6" stroke-width="1.5"/>
    
    <!-- Olhos do robô -->
    <circle cx="80" cy="61" r="3" fill="#2a5ea8"/>
    <circle cx="90" cy="61" r="3" fill="#2a5ea8"/>
    <!-- Brilho nos olhos -->
    <circle cx="81" cy="60" r="1" fill="#ffffff"/>
    <circle cx="91" cy="60" r="1" fill="#ffffff"/>
    
    <!-- Antena do robô -->
    <line x1="85" y1="52" x2="85" y2="44" stroke="#438de6" stroke-width="2" stroke-linecap="round"/>
    <circle cx="85" cy="42" r="3" fill="#f5c542"/>
    
    <!-- Boca do robô (grade) -->
    <rect x="77" y="67" width="16" height="5" rx="1" ry="1" fill="#2a5ea8"/>
    <line x1="80" y1="67" x2="80" y2="72" stroke="#7cb7f0" stroke-width="1"/>
    <line x1="83" y1="67" x2="83" y2="72" stroke="#7cb7f0" stroke-width="1"/>
    <line x1="86" y1="67" x2="86" y2="72" stroke="#7cb7f0" stroke-width="1"/>
    <line x1="89" y1="67" x2="89" y2="72" stroke="#7cb7f0" stroke-width="1"/>
    
    <!-- Corpo do robô -->
    <rect x="74" y="76" width="22" height="14" rx="3" ry="3" fill="#62a0ea" stroke="#438de6" stroke-width="1.5"/>
    
    <!-- Parafusos/rebites no corpo do robô -->
    <circle cx="79" cy="83" r="1.5" fill="#3a7bc8"/>
    <circle cx="91" cy="83" r="1.5" fill="#3a7bc8"/>
    
    <!-- Braços do robô -->
    <rect x="68" y="76" width="5" height="10" rx="2" ry="2" fill="#7cb7f0" stroke="#438de6" stroke-width="1"/>
    <rect x="97" y="76" width="5" height="10" rx="2" ry="2" fill="#7cb7f0" stroke="#438de6" stroke-width="1"/>
    
    <!-- Pés do robô -->
    <rect x="76" y="90" width="8" height="5" rx="1.5" ry="1.5" fill="#5a9ad8"/>
    <rect x="86" y="90" width="8" height="5" rx="1.5" ry="1.5" fill="#5a9ad8"/>
</svg>